<svg width="20" height="21" viewBox="0 0 20 21" fill="none" xmlns="http://www.w3.org/2000/svg">
<path d="M14.7417 11.4636C14.6625 11.4136 14.5958 11.4094 14.5208 11.3844C14.425 11.3553 14.3917 11.2344 14.3542 11.2219C14.2792 11.1928 14.2125 11.3053 14.1708 11.2886C14.125 11.2761 14.1083 11.1261 14.0708 11.1136C14 11.0886 13.925 11.2011 13.8792 11.1844C13.8333 11.1719 13.8125 11.0261 13.775 11.0136C13.7 10.9886 13.625 11.1011 13.5833 11.0886C13.5375 11.0761 13.525 10.9261 13.4917 10.9094C13.4125 10.8803 13.3417 10.9969 13.2708 10.9886C13.225 10.9803 13.1292 10.9636 13.0042 10.8803C12.9667 10.8553 12.8917 10.7969 12.8875 10.7928C12.875 10.7886 12.8417 10.7803 12.85 10.8469C12.8667 11.0011 13.1333 11.1094 13.4333 11.1969C13.7333 11.2844 14.0417 11.3678 14.225 11.4511C14.3375 11.5053 14.3875 11.5636 14.3458 11.6261C14.3125 11.6719 14.2375 11.6761 14.1542 11.6344C14.0625 11.5928 14.0542 11.5219 13.9958 11.5053C13.925 11.4886 13.8375 11.6219 13.7833 11.6094C13.7125 11.5928 13.7042 11.4428 13.6417 11.4261C13.5583 11.4053 13.4667 11.5344 13.4125 11.5219C13.3583 11.5094 13.3375 11.3469 13.2833 11.3344C13.1958 11.3136 13.1083 11.4469 13.05 11.4344C12.9958 11.4219 12.9625 11.2636 12.9167 11.2428C12.8292 11.2094 12.7125 11.3386 12.5917 11.2761C12.2 11.0136 12.275 10.8761 11.9792 10.7886C11.825 10.7428 11.6333 10.7969 11.5208 10.8094C11.2583 10.8386 11.2667 10.6094 11.2667 10.6094C11.3417 10.6261 11.45 10.6761 11.65 10.6011C11.8625 10.5219 11.9833 10.5094 12.2625 10.6011C12.4958 10.6803 12.6375 10.6094 12.7208 10.5886C12.7625 10.5761 12.7917 10.5553 12.8667 10.6053C12.9417 10.6553 13.0167 10.7053 13.0542 10.6886C13.1125 10.6594 13.0917 10.5053 13.1917 10.4719C13.2375 10.4553 13.3625 10.5803 13.4167 10.5594C13.4708 10.5386 13.4542 10.3761 13.5542 10.3428C13.6 10.3261 13.725 10.4511 13.7792 10.4303C13.8333 10.4094 13.8167 10.2469 13.9167 10.2136C13.9625 10.1969 14.0875 10.3219 14.1417 10.3011C14.1958 10.2803 14.1792 10.1178 14.2792 10.0844C14.325 10.0678 14.45 10.1928 14.5042 10.1719C14.5583 10.1511 14.55 10.1094 14.5958 10.0011C14.6042 9.98025 14.6208 9.95942 14.6417 9.93859C14.7 9.88859 14.7917 9.78442 14.7417 9.66359C14.6917 9.55525 14.5917 9.55942 14.3708 9.60525C14.1833 9.64275 13.025 9.89692 13.025 9.89692C12.8458 9.56359 12.7208 9.78442 12.4542 9.75109C12.2833 9.73025 12.0083 9.55942 11.575 9.95942C11.3417 9.89275 11.1333 9.95109 10.9833 10.0386C10.7208 9.93442 10.225 9.67609 9.28333 9.67609C9.01667 9.67609 8.37917 9.73025 7.36667 9.99692C7.10833 10.0636 6.87083 10.0511 6.8125 9.89692C6.75417 9.73442 6.9625 9.56775 7.35417 9.38025C8.32917 8.91359 8.975 9.02609 10.2833 8.33025C10.9833 7.95942 11.0292 7.52192 11.0292 7.41775C11.0292 7.34692 10.9542 7.32192 10.9125 7.38025C10.675 7.70942 10.6167 7.68025 10.5417 7.60942C10.4417 7.50942 10.3792 7.66775 10.2708 7.74692C10.1917 7.80525 10.175 7.73442 10.1083 7.69275C9.99583 7.62192 9.90417 7.83442 9.80833 7.87609C9.7 7.92609 9.67917 7.87192 9.64167 7.83025C9.61667 7.80109 9.56667 7.80525 9.53333 7.83442C9.30833 8.04692 9.27917 8.02192 9.2125 7.95109C9.1625 7.89692 9.1375 7.86359 8.99167 8.00942C8.90833 8.09275 8.77083 8.19275 8.725 8.08859C8.68333 7.98442 8.64583 7.92192 8.44167 8.10942C8.32083 8.22192 8.2375 8.23025 8.2 8.17609C8.1625 8.12192 8.17083 7.98025 7.97917 8.13025C7.80833 8.26359 7.72083 8.34692 7.6625 8.21775C7.60833 8.09275 7.48333 8.19692 7.38333 8.28859C7.33333 8.33859 7.25 8.45109 7.18333 8.33442C7.11667 8.21775 7.00833 8.33859 6.87083 8.48442C6.79167 8.56775 6.74167 8.53025 6.66667 8.47609C6.57917 8.41359 6.48333 8.63859 6.35833 8.77609C6.33333 8.79692 6.3 8.81359 6.22083 8.75942C6.12083 8.68859 5.9625 9.04275 5.91667 9.12609C5.84167 9.26359 5.7625 9.08859 5.675 9.21359C5.475 9.50525 5.2625 9.83025 5.2 10.4053C5.12917 11.0928 5.38333 11.6553 5.64167 11.8594C5.64167 11.8594 5.60833 11.9386 5.575 12.0344C5.50417 12.2303 5.47083 12.4803 5.56667 12.6553C5.65833 12.8261 5.86667 13.1094 5.94583 12.8428C5.98333 12.7136 6.02083 12.7178 6.14583 12.8094C6.33333 12.9428 6.2875 12.7011 6.325 12.6261C6.35 12.5761 6.38333 12.5553 6.54167 12.6594C6.63333 12.7178 6.65833 12.6386 6.6875 12.5261C6.77083 12.1844 6.60833 12.0969 6.44583 12.0678C6.32917 12.0428 6.20833 12.0636 6.20833 12.0636C6.4625 11.6761 6.49583 11.4636 6.20833 11.2636C6.25 11.2428 6.2875 11.2553 6.32083 11.2678C6.39167 11.2969 6.45 11.3511 6.4875 11.4178C6.52917 11.4886 6.59167 11.6428 6.4625 11.9219C6.51667 11.9219 6.72917 11.9344 6.825 12.1511C6.95 12.1928 7.75833 12.2553 8.1125 12.1969C8.24167 12.1761 8.3 12.0594 8.42917 11.9386C8.57083 11.8094 8.73333 11.6678 8.875 11.7719C8.62917 11.8719 8.45417 12.0636 8.45417 12.3094C8.45417 12.4928 8.52917 12.5678 8.6625 12.6761C8.77917 12.7761 8.81667 12.9303 8.8625 13.0511C8.91667 13.2053 9.03333 13.2094 9.05833 13.0636C9.09583 12.8594 9.15417 12.8969 9.23333 12.9844C9.32917 13.0886 9.40417 13.0719 9.40417 12.9219C9.40417 12.7803 9.44583 12.7094 9.60833 12.8719C9.675 12.9386 9.75 12.9386 9.75 12.7886C9.75 12.6094 9.82917 12.6261 9.92917 12.7053C9.9625 12.7303 9.9875 12.7511 10.0083 12.7511C10.0875 12.7469 10.1375 12.5928 10.0792 12.4719C10.05 12.4094 10.0042 12.3219 9.59583 12.2386C9.4625 12.2094 9.48333 12.1178 9.48333 12.1178C10.4792 12.1678 11.325 12.0428 11.8833 11.7011C12.5667 11.8678 13.5667 11.8803 13.8917 11.8761C14.2208 11.8719 14.4708 11.8553 14.675 11.7594C14.875 11.6844 14.8417 11.5261 14.7417 11.4636ZM12.6792 9.91359C12.7 9.86359 12.7417 9.83025 12.7833 9.83025C12.8583 9.83025 12.8958 9.91359 12.8958 9.93859L12.7125 9.98025C12.6625 9.98859 12.6625 9.95942 12.6792 9.91359ZM12.2083 9.90109C12.3375 9.90109 12.4125 9.99692 12.4292 10.0428C12.4292 10.0428 12.2375 10.0844 12.1542 10.1011C12.1 10.1136 12.0625 10.0886 12.0583 10.0469C12.05 10.0011 12.1 9.89692 12.2083 9.90109ZM6.92083 8.73025C7.00833 8.68859 7.1 8.65942 7.19583 8.63859C7.21667 8.63442 7.22917 8.64692 7.225 8.65942C7.20833 8.72192 7.19583 8.78442 7.18333 8.85109C7.17917 8.86775 7.16667 8.87609 7.15 8.86775C7.07917 8.83442 7.00417 8.79692 6.925 8.75942C6.90417 8.75109 6.90417 8.73859 6.92083 8.73025ZM6.50417 8.92609C6.59167 8.88442 6.68333 8.85525 6.77917 8.83442C6.8 8.83025 6.80833 8.84275 6.80833 8.85525C6.79167 8.91775 6.77917 8.98025 6.7625 9.04692C6.75833 9.06359 6.74583 9.07192 6.72917 9.06359C6.65833 9.03025 6.58333 8.99275 6.50417 8.95525C6.4875 8.94692 6.4875 8.93442 6.50417 8.92609ZM6.68333 9.35942C6.70417 9.35525 6.71667 9.36775 6.7125 9.38025C6.69583 9.44275 6.68333 9.50525 6.66667 9.57192C6.6625 9.58859 6.65 9.59692 6.63333 9.58859C6.5625 9.55525 6.4875 9.51775 6.40833 9.48025C6.39167 9.47192 6.39167 9.45942 6.40833 9.45109C6.49583 9.40942 6.5875 9.37609 6.68333 9.35942ZM6.50833 9.72609C6.49167 9.78859 6.47917 9.85109 6.4625 9.91775C6.45833 9.93442 6.44583 9.94275 6.42917 9.93442C6.35833 9.90109 6.28333 9.86359 6.20417 9.82609C6.1875 9.81775 6.1875 9.80525 6.20417 9.79692C6.29167 9.75525 6.38333 9.72609 6.47917 9.70525C6.5 9.69692 6.5125 9.70942 6.50833 9.72609ZM6.12917 9.17609C6.21667 9.13442 6.30833 9.10525 6.40417 9.08442C6.425 9.08025 6.43333 9.09275 6.42917 9.10525C6.4125 9.16775 6.4 9.23025 6.3875 9.29692C6.38333 9.31359 6.37083 9.32192 6.35417 9.31359C6.28333 9.28025 6.20833 9.24275 6.12917 9.20525C6.1125 9.20109 6.1125 9.18442 6.12917 9.17609ZM5.84167 9.50942C5.92917 9.46775 6.02083 9.43859 6.11667 9.41775C6.1375 9.41359 6.15 9.42609 6.14583 9.43859C6.12917 9.50109 6.11667 9.56359 6.1 9.63025C6.09583 9.64692 6.08333 9.65525 6.06667 9.64692C5.99583 9.61359 5.92083 9.57609 5.84167 9.53859C5.825 9.53025 5.825 9.51359 5.84167 9.50942ZM5.73333 9.88859C5.82083 9.84692 5.9125 9.81775 6.00833 9.79692C6.02917 9.79275 6.04167 9.80525 6.0375 9.81775C6.02083 9.88025 6.00833 9.94275 5.99167 10.0094C5.9875 10.0261 5.975 10.0344 5.95833 10.0261C5.8875 9.99275 5.8125 9.95525 5.73333 9.91775C5.71667 9.90942 5.71667 9.89692 5.73333 9.88859ZM5.78333 10.3011C5.76667 10.2928 5.76667 10.2803 5.78333 10.2719C5.87083 10.2303 5.9625 10.2011 6.05833 10.1803C6.07917 10.1761 6.09167 10.1886 6.0875 10.2011C6.07083 10.2636 6.05833 10.3261 6.04167 10.3928C6.0375 10.4094 6.025 10.4178 6.00833 10.4094C5.9375 10.3719 5.8625 10.3386 5.78333 10.3011ZM6.27083 10.7594C6.26667 10.7761 6.25417 10.7844 6.2375 10.7761C6.16667 10.7428 6.09167 10.7053 6.0125 10.6678C5.99583 10.6594 5.99583 10.6469 6.0125 10.6386C6.1 10.5969 6.19167 10.5678 6.2875 10.5469C6.30833 10.5428 6.32083 10.5553 6.31667 10.5678C6.3 10.6303 6.2875 10.6969 6.27083 10.7594ZM6.25 10.1969C6.23333 10.1886 6.23333 10.1761 6.25 10.1678C6.3375 10.1261 6.42917 10.0928 6.525 10.0761C6.54167 10.0719 6.55417 10.0844 6.55417 10.0969C6.5375 10.1594 6.525 10.2219 6.50833 10.2886C6.50417 10.3053 6.49167 10.3136 6.475 10.3053C6.40417 10.2719 6.32917 10.2344 6.25 10.1969ZM6.68333 10.9719C6.67917 10.9886 6.66667 10.9969 6.65 10.9886C6.57917 10.9553 6.50417 10.9178 6.425 10.8803C6.40833 10.8719 6.40833 10.8594 6.425 10.8511C6.5125 10.8094 6.60417 10.7803 6.7 10.7594C6.72083 10.7553 6.73333 10.7678 6.72917 10.7803C6.7125 10.8428 6.69583 10.9094 6.68333 10.9719ZM6.775 10.5719C6.77083 10.5886 6.75833 10.5969 6.74167 10.5886C6.67083 10.5553 6.59583 10.5178 6.51667 10.4803C6.5 10.4719 6.5 10.4594 6.51667 10.4511C6.60417 10.4094 6.69583 10.3803 6.79167 10.3594C6.80833 10.3553 6.82083 10.3678 6.82083 10.3803C6.8 10.4428 6.7875 10.5053 6.775 10.5719ZM7.17917 10.7678C7.1625 10.8303 7.15 10.8928 7.13333 10.9594C7.12917 10.9761 7.11667 10.9844 7.1 10.9761C7.02917 10.9428 6.95417 10.9053 6.875 10.8678C6.85833 10.8594 6.85833 10.8469 6.875 10.8386C6.9625 10.7969 7.05417 10.7678 7.15 10.7469C7.17083 10.7428 7.18333 10.7553 7.17917 10.7678ZM7.2 10.5553C7.12917 10.5219 7.05417 10.4844 6.975 10.4469C6.95833 10.4386 6.95833 10.4261 6.975 10.4178C7.0625 10.3761 7.15417 10.3469 7.25 10.3261C7.27083 10.3219 7.28333 10.3344 7.27917 10.3469C7.2625 10.4094 7.25 10.4719 7.23333 10.5386C7.22917 10.5553 7.21667 10.5594 7.2 10.5553ZM7.55417 11.0678C7.5375 11.1303 7.525 11.1928 7.5125 11.2594C7.50833 11.2761 7.49583 11.2844 7.47917 11.2761C7.40833 11.2428 7.33333 11.2053 7.25417 11.1678C7.2375 11.1594 7.2375 11.1469 7.25417 11.1386C7.34167 11.0969 7.43333 11.0678 7.52917 11.0469C7.54583 11.0428 7.55833 11.0553 7.55417 11.0678ZM7.64583 10.6553C7.62917 10.7178 7.61667 10.7803 7.6 10.8469C7.59583 10.8636 7.58333 10.8719 7.56667 10.8636C7.49583 10.8303 7.42083 10.7928 7.34167 10.7553C7.325 10.7469 7.325 10.7344 7.34167 10.7261C7.42917 10.6844 7.52083 10.6553 7.61667 10.6344C7.6375 10.6303 7.65 10.6386 7.64583 10.6553ZM7.7 10.4053C7.69583 10.4219 7.68333 10.4303 7.66667 10.4219C7.59583 10.3886 7.52083 10.3511 7.44167 10.3136C7.425 10.3053 7.425 10.2928 7.44167 10.2844C7.52917 10.2428 7.62083 10.2136 7.71667 10.1928C7.7375 10.1886 7.74583 10.2011 7.74583 10.2136C7.72917 10.2761 7.71667 10.3428 7.7 10.4053ZM7.98333 11.1219C7.97917 11.1386 7.96667 11.1469 7.95 11.1386C7.87917 11.1053 7.80417 11.0678 7.725 11.0303C7.70833 11.0219 7.70833 11.0094 7.725 11.0011C7.8125 10.9594 7.90417 10.9303 8 10.9094C8.02083 10.9053 8.03333 10.9178 8.02917 10.9303C8.0125 10.9928 8 11.0553 7.98333 11.1219ZM8.075 10.7219C8.07083 10.7386 8.05833 10.7469 8.04167 10.7386C7.97083 10.7053 7.89583 10.6678 7.81667 10.6303C7.8 10.6219 7.8 10.6094 7.81667 10.6011C7.90417 10.5594 7.99583 10.5261 8.09167 10.5094C8.1125 10.5053 8.125 10.5178 8.12083 10.5303C8.10417 10.5928 8.0875 10.6553 8.075 10.7219ZM8.1375 10.3136C8.06667 10.2803 7.99167 10.2428 7.9125 10.2053C7.89583 10.1969 7.89583 10.1844 7.9125 10.1761C8 10.1344 8.09167 10.1053 8.1875 10.0844C8.20833 10.0803 8.21667 10.0928 8.21667 10.1053C8.2 10.1678 8.1875 10.2303 8.17083 10.2969C8.16667 10.3136 8.15 10.3219 8.1375 10.3136ZM8.5125 10.8303C8.49583 10.8928 8.48333 10.9553 8.46667 11.0219C8.4625 11.0386 8.45 11.0469 8.43333 11.0386C8.3625 11.0053 8.2875 10.9678 8.20833 10.9303C8.19167 10.9219 8.19167 10.9094 8.20833 10.9011C8.29583 10.8594 8.3875 10.8261 8.48333 10.8094C8.50417 10.8053 8.51667 10.8136 8.5125 10.8303ZM8.6 10.4261C8.58333 10.4886 8.57083 10.5511 8.55833 10.6178C8.55417 10.6344 8.54167 10.6428 8.525 10.6344C8.45417 10.6011 8.37917 10.5636 8.3 10.5261C8.28333 10.5178 8.28333 10.5053 8.3 10.4969C8.3875 10.4553 8.47917 10.4261 8.575 10.4053C8.59167 10.4011 8.6 10.4136 8.6 10.4261ZM8.6125 10.2344C8.54167 10.2011 8.46667 10.1636 8.3875 10.1261C8.37083 10.1178 8.37083 10.1053 8.3875 10.0969C8.475 10.0553 8.56667 10.0261 8.6625 10.0053C8.67917 10.0011 8.69167 10.0136 8.69167 10.0261C8.675 10.0886 8.6625 10.1511 8.64583 10.2178C8.64167 10.2344 8.625 10.2428 8.6125 10.2344ZM8.97917 10.7803C8.9625 10.8428 8.95 10.9053 8.9375 10.9719C8.93333 10.9886 8.92083 10.9969 8.90417 10.9886C8.83333 10.9553 8.75833 10.9178 8.67917 10.8803C8.6625 10.8719 8.6625 10.8594 8.67917 10.8511C8.76667 10.8094 8.85833 10.7761 8.95417 10.7594C8.97083 10.7553 8.98333 10.7636 8.97917 10.7803ZM9.06667 10.3803C9.05 10.4428 9.0375 10.5053 9.025 10.5719C9.02083 10.5886 9.00833 10.5969 8.99167 10.5886C8.92083 10.5553 8.84583 10.5178 8.76667 10.4803C8.75 10.4719 8.75 10.4594 8.76667 10.4511C8.85417 10.4094 8.94583 10.3803 9.04167 10.3594C9.05833 10.3553 9.07083 10.3678 9.06667 10.3803ZM9.10833 10.1803C9.10417 10.1969 9.09167 10.2053 9.075 10.1969C9.00417 10.1636 8.92917 10.1261 8.85 10.0886C8.83333 10.0803 8.83333 10.0678 8.85 10.0594C8.9375 10.0178 9.02917 9.98442 9.125 9.96775C9.14583 9.96359 9.15417 9.97609 9.15417 9.98859C9.1375 10.0511 9.125 10.1178 9.10833 10.1803ZM9.44167 10.7969C9.425 10.8594 9.4125 10.9219 9.39583 10.9886C9.39167 11.0053 9.37917 11.0136 9.3625 11.0053C9.29167 10.9719 9.21667 10.9344 9.1375 10.8969C9.12083 10.8886 9.12083 10.8761 9.1375 10.8678C9.225 10.8261 9.31667 10.7969 9.4125 10.7761C9.43333 10.7719 9.44583 10.7844 9.44167 10.7969ZM9.52917 10.3928C9.5125 10.4553 9.5 10.5178 9.48333 10.5844C9.47917 10.6011 9.46667 10.6094 9.45 10.6011C9.37917 10.5678 9.30417 10.5303 9.225 10.4928C9.20833 10.4844 9.20833 10.4719 9.225 10.4636C9.3125 10.4219 9.40417 10.3928 9.5 10.3719C9.52083 10.3678 9.53333 10.3803 9.52917 10.3928ZM9.62083 10.0011C9.60417 10.0636 9.59167 10.1261 9.575 10.1928C9.57083 10.2094 9.55833 10.2178 9.54167 10.2094C9.47083 10.1761 9.39583 10.1386 9.31667 10.1011C9.3 10.0928 9.3 10.0803 9.31667 10.0719C9.40417 10.0303 9.49583 10.0011 9.59167 9.98025C9.6125 9.97192 9.625 9.98442 9.62083 10.0011ZM9.93333 10.6719C9.92917 10.6886 9.91667 10.6928 9.9 10.6886C9.82917 10.6553 9.75417 10.6178 9.675 10.5803C9.65833 10.5719 9.65833 10.5594 9.675 10.5511C9.7625 10.5094 9.85417 10.4803 9.95 10.4594C9.97083 10.4553 9.98333 10.4678 9.97917 10.4803C9.9625 10.5428 9.95 10.6053 9.93333 10.6719ZM10.0708 10.0719C10.0542 10.1344 10.0417 10.1969 10.0292 10.2636C10.0208 10.2803 10.0083 10.2886 9.99167 10.2803C9.92083 10.2469 9.84583 10.2094 9.76667 10.1719C9.75 10.1636 9.75 10.1511 9.76667 10.1428C9.85417 10.1011 9.94583 10.0719 10.0417 10.0511C10.0625 10.0469 10.075 10.0553 10.0708 10.0719ZM10.4958 10.2219C10.4792 10.2844 10.4667 10.3469 10.4542 10.4136C10.45 10.4303 10.4333 10.4386 10.4208 10.4303C10.35 10.3969 10.275 10.3594 10.1958 10.3219C10.1792 10.3136 10.1792 10.3011 10.1958 10.2928C10.2833 10.2511 10.375 10.2219 10.4708 10.2011C10.4875 10.1969 10.5 10.2053 10.4958 10.2219ZM2.57917 6.83859L2.98333 6.23025C3.3375 5.69275 3.92917 5.53859 4.45 5.88442C4.975 6.23442 5.06667 6.83859 4.70833 7.37609L4.30417 7.98442L2.57917 6.83859ZM4.35833 7.14275C4.55833 6.84275 4.49583 6.49692 4.18333 6.28859C3.875 6.08025 3.53333 6.16359 3.33333 6.46359L3.1875 6.68442L4.2125 7.36359L4.35833 7.14275ZM5.22917 5.45525L4.48333 4.42192L4.8625 4.15109L5.6125 5.19275C5.775 5.41775 5.98333 5.39692 6.13333 5.28859C6.28333 5.18025 6.37083 4.98859 6.20833 4.76359L5.45833 3.72192L5.8375 3.45109L6.58333 4.48442C6.91667 4.94692 6.72917 5.40109 6.39167 5.64692C6.05417 5.88442 5.5625 5.91775 5.22917 5.45525ZM7.075 2.85942L7.7625 2.67192C8.3125 2.52192 8.65417 2.82192 8.74583 3.15109C8.8 3.35109 8.77083 3.58859 8.6125 3.78025L9.31667 4.38859L8.76667 4.53859L8.20833 4.03859C8.18333 4.04692 8.1625 4.05525 8.14167 4.05942L7.90417 4.12609L8.07083 4.73025L7.62083 4.85525L7.075 2.85942ZM8.00417 3.66775C8.25417 3.59692 8.325 3.42192 8.28333 3.27609C8.24583 3.13025 8.09583 3.01359 7.84167 3.08442L7.6375 3.13859L7.79583 3.72192L8.00417 3.66775ZM10.5917 2.36359L11.1667 2.41775L11.7167 4.55109L11.2208 4.50109L11.1208 4.07192L10.3208 3.99275L10.1375 4.39275L9.64167 4.34275L10.5917 2.36359ZM11.0167 3.64275L10.8333 2.88859L10.5083 3.59275L11.0167 3.64275ZM13.0375 2.85942L13.7125 3.18442C14.1083 3.37609 14.2417 3.71775 14.1083 3.99275C14.0167 4.18442 13.8458 4.26359 13.6833 4.27192C13.8458 4.43442 13.8958 4.63442 13.7958 4.84275C13.6625 5.11775 13.2792 5.27192 12.8542 5.06775L12.1375 4.72192L13.0375 2.85942ZM13.025 4.68859C13.1833 4.76359 13.2917 4.71359 13.3333 4.62192C13.375 4.53025 13.35 4.41359 13.1958 4.33859L12.9125 4.19692L12.7417 4.55109L13.025 4.68859ZM13.3125 3.93859C13.4625 4.00942 13.5792 3.95109 13.6292 3.84692C13.6792 3.74692 13.65 3.61775 13.5 3.54692L13.275 3.43859L13.0875 3.83025L13.3125 3.93859ZM15.3042 4.16359L15.6458 4.48025L14.5375 5.68442L15.1542 6.25109L14.8625 6.56775L13.9042 5.68442L15.3042 4.16359ZM16.8917 5.83025L17.5458 6.90525L17.1875 7.12192L16.775 6.44275L16.4333 6.65109L16.8208 7.28859L16.475 7.49692L16.0875 6.85942L15.725 7.08025L16.1542 7.78442L15.7958 8.00109L15.125 6.90525L16.8917 5.83025ZM4.25833 12.9636L4.82917 14.0844L4.45417 14.2761L4.09167 13.5678L3.7375 13.7469L4.075 14.4136L3.71667 14.5969L3.37917 13.9303L3 14.1303L3.375 14.8636L3 15.0553L2.4125 13.9053L4.25833 12.9636ZM5.03333 14.3844L5.34167 14.7344L4.11667 15.8178L4.67083 16.4469L4.34583 16.7344L3.48333 15.7594L5.03333 14.3844ZM6.05833 15.4928L7.1 16.2011L6.8625 16.5469L6.20417 16.1011L5.97917 16.4303L6.59583 16.8511L6.37083 17.1844L5.75417 16.7636L5.51667 17.1178L6.2 17.5803L5.9625 17.9261L4.89167 17.2011L6.05833 15.4928ZM6.975 17.3428C7.1625 16.7136 7.71667 16.4511 8.3 16.6261C8.74583 16.7594 9.02917 17.0803 9.04167 17.5386L8.5625 17.5261C8.55 17.3053 8.40417 17.1261 8.17083 17.0594C7.89167 16.9761 7.55833 17.0719 7.4375 17.4803C7.3 17.9386 7.56667 18.1719 7.86667 18.2636C8.02917 18.3136 8.21667 18.3344 8.325 18.3178L8.3875 18.1053L8.02917 17.9969L8.14167 17.6261L8.94583 17.8678L8.69583 18.7011C8.41667 18.8011 8.0375 18.7928 7.73333 18.7011C7.175 18.5261 6.75417 18.0803 6.975 17.3428ZM10.075 16.9261L10.6542 16.8969L11.5083 18.9261L11.0125 18.9511L10.85 18.5428L10.05 18.5803L9.92917 19.0053L9.425 19.0303L10.075 16.9261ZM10.6792 18.1303L10.3875 17.4094L10.1667 18.1553L10.6792 18.1303ZM11.575 16.8053L11.9958 16.6303L13.3375 17.4678L12.8458 16.2803L13.275 16.1011L14.0667 18.0136L13.6458 18.1886L12.3042 17.3511L12.7958 18.5386L12.3667 18.7178L11.575 16.8053ZM14.1917 16.7428C13.7667 16.2844 13.7958 15.6511 14.2667 15.2136C14.6417 14.8636 15.1208 14.8011 15.5125 15.0636L15.2083 15.4469C14.9958 15.3178 14.7667 15.3636 14.5792 15.5428C14.3167 15.7886 14.2958 16.1428 14.55 16.4136C14.8083 16.6886 15.1625 16.6969 15.4292 16.4511C15.6083 16.2844 15.6708 16.0719 15.5833 15.8386L16.0042 15.5886C16.1917 16.0053 16.0917 16.4469 15.7375 16.7803C15.2583 17.2219 14.625 17.2053 14.1917 16.7428ZM15.15 14.3053L15.7625 13.2011L16.1292 13.4053L15.7458 14.1011L16.0958 14.2928L16.4583 13.6386L16.8125 13.8344L16.45 14.4886L16.8208 14.6969L17.2208 13.9761L17.5875 14.1803L16.9625 15.3094L15.15 14.3053Z" fill="#999999"/>
</svg>
